# xmcd
# 
# Track frame offsets:
#     150
#     11899
#     45899
#     83086
#     124957
#     164280
#     194196
# 
# Disc length: 3063
# 
# Revision: 0
# Processed by: cddbd v1.5.2PL0 Copyright (c) Steve Scherf et al.
# Submitted via: BonkEnc v1.0.8
# 
DISCID=580bf507
DTITLE=Andre Matos - Pequenos Mundos Small Worlds
DYEAR=2003
DGENRE=Contemporary Jazz
TTITLE0=Surrealistic Cous-cous
TTITLE1=Por Outras Palavras
TTITLE2=Pequenos Mundos
TTITLE3=Transatlantic Affair
TTITLE4=Uncle John
TTITLE5=Los Pasos Perdidos
TTITLE6=Spirit Of Change
EXTD=
EXTT0=
EXTT1=
EXTT2=
EXTT3=
EXTT4=
EXTT5=
EXTT6=
PLAYORDER=
